<svg width="82" height="93.544" xmlns="http://www.w3.org/2000/svg">

 <g>
  <rect fill="none" id="canvas_background" height="95.544" width="84" y="-1" x="-1"/>
 </g>
 <g>
  <g transform="scale(1,-1) " font-size="16" font-family="Times New Roman" stroke="black" fill="none" id="Document">
   <g id="Spread">
    <g id="Layer 1">
     <g stroke-miterlimit="79.840319" stroke-width="0.545" fill-rule="evenodd" id="Group">
      <path id="svg_1" marker-end="none" marker-start="none" fill="#ffffff" d="m2.634,-24.756999l37.741,-21.768l0,-2.386l-22.109,-19.236l20.892,-12.272l0.34,-0.097l0.098,-9.351l-38.033,22.207l0.243,3.895l22.888,17.97l-20.94,9.593l-1.12,11.445z"/>
      <path id="svg_2" marker-end="none" marker-start="none" fill="#e00020" d="m80.258,-24.182999l-0.152,-45.722l-39.169,-22.404l0.456,45.569l38.865,22.557zm-78.642,0.457l39.777,-23.014l38.865,22.557l-39.256,22.947l-39.386,-22.49zm0,0l-0.457,-45.111l39.778,-23.472l0.456,45.57l-39.777,23.013zm38.348,-24.546l-23.006,-19.932l22.257,-13.07l-0.057,-8.057l-37.169,21.986l0.003,1.144l23.087,20.207l-20.761,12.192l0.019,7.839l35.63,-20.923l-0.003,-1.386z"/>
      <path id="svg_3" marker-end="none" marker-start="none" fill="#ffffff" d="m63.607,-43.132999l0,7.713l16.266,9.899l0,-6.78l-6.086,-13.58c3.301,1.074 6.466,0.077 6.466,-7.577c0,-7.774 -3.302,-15.454 -8.667,-18.717c-4.333,-2.636 -7.324,-1.534 -9.388,1.359l3.645,8.122c1.65,-2.152 3.371,-2.859 5.813,-1.375c1.993,1.215 3.403,4.001 3.403,7.098c0,3.39 -1.685,4.234 -4.711,2.394l-2.201,-1.34l-0.826,5.225l5.744,13.314l-9.458,-5.755z"/>
      <path id="svg_4" marker-end="none" marker-start="none" fill="#ffffff" d="m57.696,-18.926999l-23.775,-14.536l-7.976,4.939l23.774,14.536l7.977,-4.939z"/>
      <path id="svg_5" marker-end="none" marker-start="none" fill="#ffffff" d="m31.561,-13.074999l27.149,-16.81l-6.987,-4.272l-27.149,16.811l6.987,4.271z"/>
      <path id="svg_6" marker-end="none" marker-start="none" fill="#ffffff" d="m57.194,-64.591999l0,25.765l-4.559,-2.795l-11.375,-29.555l-0.136,-10.774l10.916,6.692l0,-9.066l5.154,3.16l0,9.067l3.296,2.021l0,7.509l-3.296,-2.024zm-5.154,-3.159l-6.524,-3.998l6.524,17.09l0,-13.092z"/>
      <path id="svg_7" marker-end="none" marker-start="none" fill="#ffffff" d="m96.551,-66.487999l10.81,15.41l-10.398,0l0,2.319l13.839,0l0,-1.758l-10.809,-15.41l10.772,0l0,-2.319l-14.214,0l0,1.758z"/>
      <path id="svg_8" marker-end="none" marker-start="none" fill="#ffffff" d="m114.952,-61.550999l0,12.792l2.693,0l0,-12.007c0,-3.477 1.645,-5.423 4.488,-5.423c2.843,0 4.938,2.207 4.938,5.535l0,11.894l2.693,0l0,-19.487l-2.693,0l0,3.18c-1.085,-1.945 -2.843,-3.554 -5.761,-3.554c-3.965,0.001 -6.358,2.731 -6.358,7.07z"/>
      <path id="svg_9" marker-end="none" marker-start="none" fill="#ffffff" d="m136.232,-48.758999l2.693,0l0,-4.302c1.16,2.731 3.516,4.713 6.696,4.564l0,-2.918l-0.15,0c-3.628,0 -6.546,-2.543 -6.546,-7.556l0,-9.276l-2.693,0l0,19.488z"/>
      <path id="svg_10" marker-end="none" marker-start="none" fill="#ffffff" d="m150.369,-41.577999l2.993,0l0,-3.18l-2.993,0l0,3.18zm0.15,-7.181l2.693,0l0,-19.487l-2.693,0l0,19.487z"/>
      <path id="svg_11" marker-end="none" marker-start="none" fill="#ffffff" d="m157.923,-58.708999l0,0.262c0,5.91 3.815,10.062 8.678,10.062c2.767,0 4.638,-1.16 6.134,-2.656l-1.608,-2.021c-1.16,1.16 -2.543,2.208 -4.563,2.208c-3.255,0 -5.873,-3.068 -5.873,-7.594l0,-0.187c0,-4.6 2.693,-7.554 5.985,-7.554c1.908,0 3.329,0.972 4.563,2.243l1.571,-1.796c-1.458,-1.645 -3.403,-2.916 -6.284,-2.916c-4.9,0 -8.603,4.04 -8.603,9.949z"/>
      <path id="svg_12" marker-end="none" marker-start="none" fill="#ffffff" d="m176.81,-41.240999l2.694,0l0,-10.697c1.084,1.945 2.842,3.554 5.76,3.554c3.964,0 6.358,-2.731 6.358,-7.107l0,-12.755l-2.694,0l0,12.007c0,3.478 -1.644,5.423 -4.488,5.423c-2.842,0 -4.936,-2.245 -4.936,-5.573l0,-11.857l-2.694,0l0,27.005z"/>
      <path id="svg_13" marker-end="none" marker-start="none" fill="#ffffff" d="m206.014,-63.938999l-9.503,0l-0.414,1.629l10.065,14.445l1.954,0l0,-14.208l2.753,0l0,-1.866l-2.753,0l0,-4.795l-2.102,0l0,4.795zm0,1.866l0,10.716l-7.401,-10.716l7.401,0z"/>
      <path id="svg_14" marker-end="none" marker-start="none" fill="#ffffff" d="m212.856,-66.218999l1.42,1.54c1.243,-1.421 2.753,-2.339 4.885,-2.339c2.338,0 4.203,1.628 4.203,4.144l0,0.09c0,2.664 -2.28,4.025 -5.506,4.025l-0.77,0l-0.326,1.392l5.743,7.312l-8.792,0l0,2.043l11.634,0l0,-1.657l-5.802,-7.313c3.197,-0.356 6.068,-2.072 6.068,-5.714l0,-0.088c0,-3.76 -2.871,-6.276 -6.453,-6.276c-2.783,0 -4.884,1.184 -6.304,2.841z"/>
     </g>
    </g>
   </g>
  </g>
 </g>
</svg>
